<svg width="154" height="48" viewBox="0 0 154 48" fill="none" xmlns="http://www.w3.org/2000/svg">
    <path d="M0 28.665C0 12.8363 10.7438 0 24 0C37.2563 0 48 12.8363 48 28.665" fill="#7B4D93"/>
    <path d="M24.3338 31.335C31.1455 31.335 36.6675 25.813 36.6675 19.0012C36.6675 12.1895 31.1455 6.66748 24.3338 6.66748C17.522 6.66748 12 12.1895 12 19.0012C12 25.813 17.522 31.335 24.3338 31.335Z" fill="#FF7152"/>
    <path d="M48 28.665C48 39.3413 37.2563 48 24 48C10.7438 48 0 39.345 0 28.665" fill="#C8E4F9"/>
    <path d="M65.8388 19.9537H62.1113V26.2725C62.1113 26.685 62.1188 27.0675 62.1375 27.42C62.1563 27.7725 62.2275 28.0762 62.355 28.3387C62.4825 28.6012 62.67 28.8075 62.9213 28.9612C63.1725 29.115 63.5325 29.19 64.0013 29.19C64.3088 29.19 64.6238 29.1525 64.9463 29.0812C65.2688 29.01 65.5763 28.9012 65.865 28.755L65.9475 30.6712C65.5875 30.8325 65.1863 30.9487 64.7475 31.0237C64.305 31.095 63.8888 31.1325 63.4913 31.1325C62.7338 31.1325 62.1338 31.035 61.6838 30.8362C61.2338 30.6375 60.8813 30.36 60.63 30C60.3788 29.64 60.21 29.1937 60.1313 28.665C60.0488 28.1362 60.0113 27.5437 60.0113 26.895V19.9575H57.2588V18.1762H60.0113V14.5837H62.1188V18.1762H65.8463V19.9575L65.8388 19.9537Z" fill="#4D4B42"/>
    <path d="M81.9825 30.8063H79.905L76.3125 21.0863H76.26L73.0725 30.8063H70.9125L66.81 18.1688H69.1313L72.0188 27.8888H72.0713L75.3375 18.1688H77.55L80.8725 27.8888H80.925L83.7863 18.1688H86.055L81.9788 30.8063H81.9825Z" fill="#4D4B42"/>
    <path d="M88.14 13.23C88.14 12.8175 88.29 12.4575 88.5863 12.15C88.8825 11.8425 89.2463 11.6925 89.6813 11.6925C90.1163 11.6925 90.4763 11.8463 90.7763 12.15C91.0725 12.4575 91.2225 12.8175 91.2225 13.23C91.2225 13.68 91.08 14.0513 90.7913 14.3363C90.5025 14.625 90.135 14.7675 89.685 14.7675C89.235 14.7675 88.8675 14.625 88.5788 14.3363C88.29 14.0475 88.1475 13.68 88.1475 13.23H88.14ZM88.6275 18.1725H90.735V30.81H88.6275V18.1725Z" fill="#4D4B42"/>
    <path d="M95.1075 10.395H97.215V30.8063H95.1075V10.395Z" fill="#4D4B42"/>
    <path d="M101.126 13.23C101.126 12.8175 101.276 12.4575 101.573 12.15C101.869 11.8425 102.233 11.6925 102.668 11.6925C103.103 11.6925 103.463 11.8463 103.763 12.15C104.059 12.4575 104.209 12.8175 104.209 13.23C104.209 13.68 104.066 14.0513 103.778 14.3363C103.489 14.625 103.121 14.7675 102.671 14.7675C102.221 14.7675 101.854 14.625 101.565 14.3363C101.276 14.0475 101.134 13.68 101.134 13.23H101.126ZM101.614 18.1725H103.721V30.81H101.614V18.1725Z" fill="#4D4B42"/>
    <path d="M120.514 30.24C120.514 32.5425 119.925 34.2937 118.744 35.49C117.566 36.6862 115.86 37.2862 113.629 37.2862C112.388 37.2862 111.266 37.1062 110.269 36.7462C109.271 36.3862 108.319 35.7637 107.419 34.8825L108.93 33.1537C109.594 33.8737 110.303 34.4175 111.049 34.7887C111.795 35.1562 112.654 35.3437 113.629 35.3437C114.604 35.3437 115.343 35.205 115.965 34.9237C116.588 34.6425 117.075 34.2675 117.435 33.7912C117.795 33.315 118.046 32.7712 118.193 32.1562C118.335 31.545 118.41 30.9037 118.41 30.24V28.62H118.358C117.855 29.43 117.195 30.0225 116.385 30.4012C115.575 30.78 114.746 30.9675 113.903 30.9675C112.913 30.9675 112.005 30.8062 111.176 30.4837C110.348 30.1575 109.639 29.7112 109.043 29.1337C108.446 28.5562 107.989 27.8737 107.666 27.0825C107.344 26.2912 107.179 25.425 107.179 24.4912C107.179 23.4637 107.34 22.5375 107.666 21.7087C107.989 20.88 108.446 20.1825 109.031 19.6162C109.616 19.05 110.321 18.615 111.15 18.3075C111.979 18 112.898 17.85 113.903 17.85C114.334 17.85 114.765 17.8987 115.2 18C115.631 18.0975 116.051 18.2512 116.456 18.4575C116.861 18.6637 117.225 18.9262 117.551 19.2412C117.874 19.5562 118.144 19.92 118.361 20.3362H118.414V18.1762H120.521V30.2437L120.514 30.24ZM109.44 24.4912C109.44 25.14 109.556 25.7362 109.793 26.2875C110.025 26.835 110.348 27.315 110.753 27.72C111.158 28.125 111.63 28.4437 112.17 28.68C112.71 28.9125 113.288 29.0325 113.899 29.0325C114.619 29.0325 115.256 28.905 115.815 28.6537C116.374 28.4025 116.846 28.065 117.233 27.6412C117.619 27.2175 117.911 26.7337 118.11 26.1825C118.309 25.635 118.406 25.0537 118.406 24.4425C118.406 23.76 118.298 23.1337 118.084 22.5675C117.866 22.0012 117.563 21.51 117.165 21.0975C116.768 20.685 116.291 20.3625 115.733 20.1375C115.174 19.9125 114.563 19.8 113.895 19.8C113.228 19.8 112.62 19.92 112.073 20.1637C111.525 20.4075 111.056 20.7412 110.67 21.1612C110.284 21.585 109.98 22.08 109.766 22.6462C109.549 23.2125 109.444 23.8312 109.444 24.495L109.44 24.4912Z" fill="#4D4B42"/>
    <path d="M124.399 10.395H126.506V19.9275H126.559C126.701 19.6763 126.9 19.4288 127.151 19.185C127.403 18.9413 127.706 18.72 128.055 18.525C128.408 18.3263 128.798 18.165 129.229 18.0375C129.66 17.9138 130.121 17.85 130.605 17.85C131.434 17.85 132.15 17.9775 132.75 18.2288C133.354 18.48 133.853 18.8325 134.25 19.2825C134.644 19.7325 134.94 20.2763 135.128 20.9175C135.315 21.555 135.413 22.2525 135.413 23.01V30.8138H133.305V23.2275C133.305 22.1663 133.073 21.33 132.604 20.715C132.135 20.1038 131.408 19.7963 130.418 19.7963C129.735 19.7963 129.143 19.9125 128.648 20.1488C128.153 20.3813 127.748 20.715 127.433 21.1463C127.118 21.5775 126.885 22.0913 126.731 22.6838C126.578 23.2763 126.503 23.9363 126.503 24.6563V30.8138H124.395V10.395H124.399Z" fill="#4D4B42"/>
    <path d="M146.325 19.9537H142.598V26.2725C142.598 26.685 142.605 27.0675 142.624 27.42C142.643 27.7725 142.714 28.0762 142.841 28.3387C142.969 28.6012 143.156 28.8075 143.408 28.9612C143.659 29.115 144.019 29.19 144.488 29.19C144.795 29.19 145.11 29.1525 145.433 29.0812C145.755 29.01 146.063 28.9012 146.351 28.755L146.434 30.6712C146.074 30.8325 145.673 30.9487 145.234 31.0237C144.791 31.095 144.375 31.1325 143.978 31.1325C143.22 31.1325 142.62 31.035 142.17 30.8362C141.72 30.6375 141.368 30.36 141.116 30C140.865 29.64 140.696 29.1937 140.618 28.665C140.535 28.1362 140.498 27.5437 140.498 26.895V19.9575H137.745V18.1762H140.498V14.5837H142.605V18.1762H146.333V19.9575L146.325 19.9537Z" fill="#4D4B42"/>
</svg>
